<?xml version="1.0" encoding="UTF-8"?>
<svg width="100px" height="100px" viewBox="0 0 100 100" version="1.1" xmlns="http://www.w3.org/2000/svg" xmlns:xlink="http://www.w3.org/1999/xlink">
    <!-- Generator: Sketch 63.1 (92452) - https://sketch.com -->
    <title>daedalus_security</title>
    <desc>Created with Sketch.</desc>
    <g id="daedalus_security" stroke="none" stroke-width="1" fill="none" fill-rule="evenodd">
        <g id="Group" transform="translate(14.000000, 5.000000)" fill="#AFAFAF">
            <path d="M30.6459115,86.348012 L34.2499625,88.8846212 L35.5813953,89.8258065 L36.9128282,88.8846212 L40.5168792,86.348012 C47.2429107,81.6420855 54.1870218,76.7525131 59.6849212,71.5300825 C67.5357839,64.0350338 71.1627907,57.0105776 71.1627907,49.4237059 L71.1627907,13.0273818 L35.5813953,3.71795618e-14 L0,13.0273818 L0,49.4237059 C0,57.0105776 3.66144036,64.0350338 11.4778695,71.5300825 C16.9757689,76.7525131 23.91988,81.6420855 30.6459115,86.348012 Z M3.13953488,49.5641274 L3.13953488,15.403917 L35.5813953,3.72591898 L68.0232558,15.403917 L68.0232558,49.5641274 C68.0232558,55.9876167 64.6709302,62.1277167 57.4616279,68.8936347 C52.0065891,74.0182566 44.8813953,78.9303367 37.9844961,83.6889142 L35.5813953,85.353826 L33.1782946,83.6889142 C26.2813953,78.9657603 19.1562016,74.0182566 13.7011628,68.8936347 C6.49186047,62.1277167 3.13953488,55.9876167 3.13953488,49.5641274 Z" id="Shape" fill-rule="nonzero"></path>
            <g id="Group-3" transform="translate(15.697674, 16.744186)" stroke="#AFAFAF">
                <path d="M20.9535473,45.0922652 L20.9535473,23.7440806 L39.4419756,13.0727678 L39.4419756,34.4151009 L20.9535473,45.0922652 Z M1.23250825,13.0670626 L19.7209366,23.7439344 L19.7209366,45.0922652 L1.23250825,34.4151009 L1.23250825,13.0670626 Z M20.3372419,1.32815041 L38.8205503,12.002389 L20.3372419,22.6764812 L5.15035521,13.9058698 L1.84881358,11.999317 L20.3372419,1.32815041 Z M40.3663605,11.4655173 C40.3548038,11.4587881 40.3417843,11.4563012 40.3297888,11.4503035 L20.6454677,0.0826665416 C20.4545638,-0.0274872468 20.2197738,-0.0274872468 20.0291624,0.0826665416 L0.308123406,11.4655173 C0.117365716,11.575671 4.38859715e-05,11.7790094 4.38859715e-05,11.999317 L4.38859715e-05,34.7707236 C4.38859715e-05,34.9910311 0.117365716,35.1943695 0.308123406,35.3045233 L20.0291624,46.6936643 C20.1245413,46.7483755 20.2307453,46.7761699 20.3372419,46.7761699 C20.4438848,46.7761699 20.5499426,46.7483755 20.6454677,46.6936643 L40.3663605,35.3045233 C40.5571182,35.1943695 40.6745863,34.9910311 40.6745863,34.7707236 L40.6745863,11.999317 C40.6745863,11.7790094 40.5571182,11.575671 40.3663605,11.4655173 L40.3663605,11.4655173 Z" id="Fill-1"></path>
            </g>
        </g>
    </g>
</svg>