<?xml version="1.0" encoding="UTF-8"?>
<svg width="100px" height="100px" viewBox="0 0 100 100" version="1.1" xmlns="http://www.w3.org/2000/svg" xmlns:xlink="http://www.w3.org/1999/xlink">
    <!-- Generator: Sketch 63.1 (92452) - https://sketch.com -->
    <title>Daedalus_theme</title>
    <desc>Created with Sketch.</desc>
    <g id="Daedalus_theme" stroke="none" stroke-width="1" fill="none" fill-rule="evenodd">
        <path d="M95.1612903,5 L4.83870968,5 C2.17096774,5 0,7.17096774 0,9.83870968 L0,90.483871 C0,93.1516129 2.17096774,95.3225806 4.83870968,95.3225806 L95.1612903,95.3225806 C97.8290323,95.3225806 100,93.1516129 100,90.483871 L100,9.83870968 C100,7.17096774 97.8290323,5 95.1612903,5 Z M4.83870968,8.22580645 L95.1612903,8.22580645 C96.0516129,8.22580645 96.7741935,8.95 96.7741935,9.83870968 L96.7741935,19.516129 L3.22580645,19.516129 L3.22580645,9.83870968 C3.22580645,8.95 3.9483871,8.22580645 4.83870968,8.22580645 Z M95.1612903,92.0967742 L4.83870968,92.0967742 C3.9483871,92.0967742 3.22580645,91.3725806 3.22580645,90.483871 L3.22580645,22.7419355 L96.7741935,22.7419355 L96.7741935,90.483871 C96.7741935,91.3725806 96.0516129,92.0967742 95.1612903,92.0967742 Z M8.06451613,13.8709677 C8.06451613,12.5354839 9.1483871,11.4516129 10.483871,11.4516129 C11.8193548,11.4516129 12.9032258,12.5354839 12.9032258,13.8709677 C12.9032258,15.2064516 11.8193548,16.2903226 10.483871,16.2903226 C9.1483871,16.2903226 8.06451613,15.2064516 8.06451613,13.8709677 Z M16.1290323,13.8709677 C16.1290323,12.5354839 17.2129032,11.4516129 18.5483871,11.4516129 C19.883871,11.4516129 20.9677419,12.5354839 20.9677419,13.8709677 C20.9677419,15.2064516 19.883871,16.2903226 18.5483871,16.2903226 C17.2129032,16.2903226 16.1290323,15.2064516 16.1290323,13.8709677 Z M24.1935484,13.8709677 C24.1935484,12.5354839 25.2774194,11.4516129 26.6129032,11.4516129 C27.9483871,11.4516129 29.0322581,12.5354839 29.0322581,13.8709677 C29.0322581,15.2064516 27.9483871,16.2903226 26.6129032,16.2903226 C25.2774194,16.2903226 24.1935484,15.2064516 24.1935484,13.8709677 Z M52.466129,32.5403226 C37.7306452,31.0903226 25.8064516,42.6967742 25.8064516,56.6129032 C25.8064516,69.85 36.5677419,80.7032258 49.7935484,80.8064516 C49.8096774,80.8064516 49.8258065,80.8064516 49.8403226,80.8064516 C56.1403226,80.8064516 57.8,72.4983871 52.3306452,70.0177419 C51.133871,69.466129 51.5225806,67.9032258 52.8693548,67.9032258 L58.8709677,67.9032258 C71.0080645,67.9032258 75.6919355,61.0193548 73.7790323,52.1225806 C71.8467742,41.7822581 63.1258065,33.6064516 52.466129,32.5403226 Z M58.8709677,64.6774194 L52.8693548,64.6774194 C48.0274194,64.6774194 46.6806452,70.9790323 50.9951613,72.9516129 C53.3209677,74.0048387 52.6758065,77.5806452 49.8387097,77.5806452 C49.8322581,77.5806452 49.8241935,77.5806452 49.8177419,77.5806452 C38.3564516,77.4887097 29.0322581,68.0854839 29.0322581,56.6129032 C29.0322581,44.5870968 39.3435484,34.4758065 52.1451613,35.75 C57.0967742,36.2451613 61.7435484,38.5483871 65.2306452,42.2370968 L65.2612903,42.2693548 C68.0354839,45.216129 69.8822581,48.8274194 70.6048387,52.7 L70.6403226,52.8822581 C72.3887097,60.9887097 67.3403226,64.6774194 58.8709677,64.6774194 Z M53.2258065,42.0967742 C53.2258065,43.8790323 51.7822581,45.3225806 50,45.3225806 C48.2177419,45.3225806 46.7741935,43.8790323 46.7741935,42.0967742 C46.7741935,40.3145161 48.2177419,38.8709677 50,38.8709677 C51.7822581,38.8709677 53.2258065,40.3145161 53.2258065,42.0967742 Z M62.5435484,44.0677419 C63.8032258,45.3274194 63.8032258,47.3693548 62.5435484,48.6290323 C61.2854839,49.8887097 59.2419355,49.8887097 57.983871,48.6290323 C56.7241935,47.3693548 56.7241935,45.3274194 57.983871,44.0677419 C59.2419355,42.8080645 61.2854839,42.8080645 62.5435484,44.0677419 Z M42.016129,44.0677419 C43.2758065,45.3274194 43.2758065,47.3693548 42.016129,48.6290323 C40.7564516,49.8887097 38.7145161,49.8887097 37.4548387,48.6290323 C36.1951613,47.3693548 36.1951613,45.3274194 37.4548387,44.0677419 C38.7145161,42.8080645 40.7564516,42.8080645 42.016129,44.0677419 Z M38.7096774,56.6129032 C38.7096774,58.3951613 37.266129,59.8387097 35.483871,59.8387097 C33.7016129,59.8387097 32.2580645,58.3951613 32.2580645,56.6129032 C32.2580645,54.8306452 33.7016129,53.3870968 35.483871,53.3870968 C37.266129,53.3870968 38.7096774,54.8306452 38.7096774,56.6129032 Z" id="Shape" fill="#AFAFAF" fill-rule="nonzero"></path>
    </g>
</svg>