<?xml version="1.0" encoding="UTF-8"?>
<svg width="100px" height="100px" viewBox="0 0 100 100" version="1.1" xmlns="http://www.w3.org/2000/svg" xmlns:xlink="http://www.w3.org/1999/xlink">
    <!-- Generator: Sketch 63.1 (92452) - https://sketch.com -->
    <title>daedalus_desktop</title>
    <desc>Created with Sketch.</desc>
    <g id="daedalus_desktop" stroke="none" stroke-width="1" fill="none" fill-rule="evenodd">
        <g id="Group" transform="translate(1.000000, 1.000000)" fill="#AFAFAF" fill-rule="nonzero" stroke="#AFAFAF">
            <path d="M35.1195652,80.3152174 C22.5108696,75.3913043 14.3695652,63.4565217 14.3695652,49.9130435 C14.3695652,48.6413043 14.4456522,47.3586957 14.5869565,46.0978261 C14.6521739,45.5 14.2282609,44.9673913 13.6304348,44.8913043 C13.0217391,44.826087 12.5,45.25 12.423913,45.8478261 C12.2717391,47.1847826 12.1847826,48.5543478 12.1847826,49.9130435 C12.1847826,64.3586957 20.8695652,77.0869565 34.3152174,82.3369565 C34.4456522,82.3913043 34.576087,82.4130435 34.7065217,82.4130435 C35.1413043,82.4130435 35.5543478,82.1521739 35.7173913,81.7173913 C35.9565217,81.1630435 35.673913,80.5326087 35.1195652,80.3152174 Z" id="Path" stroke-width="0.6"></path>
            <path d="M62.8804348,18.5108696 C75.4891304,23.4347826 83.6304348,35.3695652 83.6304348,48.9130435 C83.6304348,49.5 83.6195652,50.076087 83.5869565,50.6521739 C83.5543478,51.25 84.0108696,51.7608696 84.6195652,51.7934783 C84.6413043,51.7934783 84.6630435,51.7934783 84.673913,51.7934783 C85.25,51.7934783 85.7282609,51.3478261 85.7608696,50.7608696 C85.7934783,50.1413043 85.8043478,49.5217391 85.8043478,48.9021739 C85.8043478,34.4565217 77.1195652,21.7282609 63.6630435,16.4782609 C63.0978261,16.2608696 62.4782609,16.5326087 62.25,17.0978261 C62.0434783,17.6630435 62.326087,18.2934783 62.8804348,18.5108696 Z" id="Path" stroke-width="0.6"></path>
            <path d="M56.1451613,3.55271368e-15 L2.85483871,3.55271368e-15 C1.28087097,3.55271368e-15 0,1.28087097 0,2.85483871 L0,39.4354839 C0,41.0094516 1.28087097,42.2903226 2.85483871,42.2903226 L56.1451613,42.2903226 C57.719129,42.2903226 59,41.0094516 59,39.4354839 L59,2.85483871 C59,1.28087097 57.719129,3.55271368e-15 56.1451613,3.55271368e-15 Z M2.85483871,1.90322581 L56.1451613,1.90322581 C56.6704516,1.90322581 57.0967742,2.3305 57.0967742,2.85483871 L57.0967742,8.56451613 L1.90322581,8.56451613 L1.90322581,2.85483871 C1.90322581,2.3305 2.32954839,1.90322581 2.85483871,1.90322581 Z M56.1451613,40.3870968 L2.85483871,40.3870968 C2.32954839,40.3870968 1.90322581,39.9598226 1.90322581,39.4354839 L1.90322581,10.4677419 L57.0967742,10.4677419 L57.0967742,39.4354839 C57.0967742,39.9598226 56.6704516,40.3870968 56.1451613,40.3870968 Z M4.75806452,5.23387097 C4.75806452,4.44593548 5.39754839,3.80645161 6.18548387,3.80645161 C6.97341935,3.80645161 7.61290323,4.44593548 7.61290323,5.23387097 C7.61290323,6.02180645 6.97341935,6.66129032 6.18548387,6.66129032 C5.39754839,6.66129032 4.75806452,6.02180645 4.75806452,5.23387097 Z M9.51612903,5.23387097 C9.51612903,4.44593548 10.1556129,3.80645161 10.9435484,3.80645161 C11.7314839,3.80645161 12.3709677,4.44593548 12.3709677,5.23387097 C12.3709677,6.02180645 11.7314839,6.66129032 10.9435484,6.66129032 C10.1556129,6.66129032 9.51612903,6.02180645 9.51612903,5.23387097 Z M14.2741935,5.23387097 C14.2741935,4.44593548 14.9136774,3.80645161 15.7016129,3.80645161 C16.4895484,3.80645161 17.1290323,4.44593548 17.1290323,5.23387097 C17.1290323,6.02180645 16.4895484,6.66129032 15.7016129,6.66129032 C14.9136774,6.66129032 14.2741935,6.02180645 14.2741935,5.23387097 Z" id="Shape-Copy-3" stroke-width="0.4"></path>
            <path d="M95.1451613,55 L41.8548387,55 C40.280871,55 39,56.280871 39,57.8548387 L39,94.4354839 C39,96.0094516 40.280871,97.2903226 41.8548387,97.2903226 L95.1451613,97.2903226 C96.719129,97.2903226 98,96.0094516 98,94.4354839 L98,57.8548387 C98,56.280871 96.719129,55 95.1451613,55 Z M41.8548387,56.9032258 L95.1451613,56.9032258 C95.6704516,56.9032258 96.0967742,57.3305 96.0967742,57.8548387 L96.0967742,63.5645161 L40.9032258,63.5645161 L40.9032258,57.8548387 C40.9032258,57.3305 41.3295484,56.9032258 41.8548387,56.9032258 Z M95.1451613,95.3870968 L41.8548387,95.3870968 C41.3295484,95.3870968 40.9032258,94.9598226 40.9032258,94.4354839 L40.9032258,65.4677419 L96.0967742,65.4677419 L96.0967742,94.4354839 C96.0967742,94.9598226 95.6704516,95.3870968 95.1451613,95.3870968 Z M43.7580645,60.233871 C43.7580645,59.4459355 44.3975484,58.8064516 45.1854839,58.8064516 C45.9734194,58.8064516 46.6129032,59.4459355 46.6129032,60.233871 C46.6129032,61.0218065 45.9734194,61.6612903 45.1854839,61.6612903 C44.3975484,61.6612903 43.7580645,61.0218065 43.7580645,60.233871 Z M48.516129,60.233871 C48.516129,59.4459355 49.1556129,58.8064516 49.9435484,58.8064516 C50.7314839,58.8064516 51.3709677,59.4459355 51.3709677,60.233871 C51.3709677,61.0218065 50.7314839,61.6612903 49.9435484,61.6612903 C49.1556129,61.6612903 48.516129,61.0218065 48.516129,60.233871 Z M53.2741935,60.233871 C53.2741935,59.4459355 53.9136774,58.8064516 54.7016129,58.8064516 C55.4895484,58.8064516 56.1290323,59.4459355 56.1290323,60.233871 C56.1290323,61.0218065 55.4895484,61.6612903 54.7016129,61.6612903 C53.9136774,61.6612903 53.2741935,61.0218065 53.2741935,60.233871 Z" id="Shape-Copy-5" stroke-width="0.4"></path>
        </g>
    </g>
</svg>