<?xml version="1.0" encoding="UTF-8"?>
<svg width="100px" height="100px" viewBox="0 0 100 100" version="1.1" xmlns="http://www.w3.org/2000/svg" xmlns:xlink="http://www.w3.org/1999/xlink">
    <!-- Generator: Sketch 63.1 (92452) - https://sketch.com -->
    <title>daedalus_news</title>
    <desc>Created with Sketch.</desc>
    <g id="daedalus_news" stroke="none" stroke-width="1" fill="none" fill-rule="evenodd">
        <g id="Group" transform="translate(0.000000, 5.000000)" fill="#AFAFAF" fill-rule="nonzero">
            <path d="M95.1612903,-1.42108547e-14 L4.83870968,-1.42108547e-14 C2.17096774,-1.42108547e-14 0,2.17096774 0,4.83870968 L0,85.483871 C0,88.1516129 2.17096774,90.3225806 4.83870968,90.3225806 L95.1612903,90.3225806 C97.8290323,90.3225806 100,88.1516129 100,85.483871 L100,4.83870968 C100,2.17096774 97.8290323,-1.42108547e-14 95.1612903,-1.42108547e-14 Z M4.83870968,3.22580645 L95.1612903,3.22580645 C96.0516129,3.22580645 96.7741935,3.95 96.7741935,4.83870968 L96.7741935,14.516129 L3.22580645,14.516129 L3.22580645,4.83870968 C3.22580645,3.95 3.9483871,3.22580645 4.83870968,3.22580645 Z M95.1612903,87.0967742 L4.83870968,87.0967742 C3.9483871,87.0967742 3.22580645,86.3725806 3.22580645,85.483871 L3.22580645,17.7419355 L96.7741935,17.7419355 L96.7741935,85.483871 C96.7741935,86.3725806 96.0516129,87.0967742 95.1612903,87.0967742 Z M8.06451613,8.87096774 C8.06451613,7.53548387 9.1483871,6.4516129 10.483871,6.4516129 C11.8193548,6.4516129 12.9032258,7.53548387 12.9032258,8.87096774 C12.9032258,10.2064516 11.8193548,11.2903226 10.483871,11.2903226 C9.1483871,11.2903226 8.06451613,10.2064516 8.06451613,8.87096774 Z M16.1290323,8.87096774 C16.1290323,7.53548387 17.2129032,6.4516129 18.5483871,6.4516129 C19.883871,6.4516129 20.9677419,7.53548387 20.9677419,8.87096774 C20.9677419,10.2064516 19.883871,11.2903226 18.5483871,11.2903226 C17.2129032,11.2903226 16.1290323,10.2064516 16.1290323,8.87096774 Z M24.1935484,8.87096774 C24.1935484,7.53548387 25.2774194,6.4516129 26.6129032,6.4516129 C27.9483871,6.4516129 29.0322581,7.53548387 29.0322581,8.87096774 C29.0322581,10.2064516 27.9483871,11.2903226 26.6129032,11.2903226 C25.2774194,11.2903226 24.1935484,10.2064516 24.1935484,8.87096774 Z" id="Shape-Copy"></path>
            <path d="M68.0251971,39.0675512 C68.0251971,39.6450737 67.5570227,40.1132481 66.9795002,40.1132481 L44.0787391,40.1132481 C43.5012167,40.1132481 43.0330423,39.6450737 43.0330423,39.0675512 C43.0330423,38.4900288 43.5012167,38.0218544 44.0787391,38.0218544 L66.9795002,38.0218544 C67.5570227,38.0218544 68.0251971,38.4900288 68.0251971,39.0675512 Z M44.0787391,45.8070675 L50.9698814,45.8070675 C51.5474038,45.8070675 52.0155782,45.338893 52.0155782,44.7613706 C52.0155782,44.1838482 51.5474038,43.7156738 50.9698814,43.7156738 L44.0787391,43.7156738 C43.5012167,43.7156738 43.0330423,44.1838482 43.0330423,44.7613706 C43.0330423,45.338893 43.5012167,45.8070675 44.0787391,45.8070675 Z M44.0787391,51.4852014 L50.9698814,51.4852014 C51.5474038,51.4852014 52.0155782,51.017027 52.0155782,50.4395045 C52.0155782,49.8619821 51.5474038,49.3938077 50.9698814,49.3938077 L44.0787391,49.3938077 C43.5012167,49.3938077 43.0330423,49.8619821 43.0330423,50.4395045 C43.0330423,51.017027 43.5012167,51.4852014 44.0787391,51.4852014 Z M44.0787391,57.1633353 L50.9698814,57.1633353 C51.5474038,57.1633353 52.0155782,56.6951609 52.0155782,56.1176385 C52.0155782,55.540116 51.5474038,55.0719416 50.9698814,55.0719416 L44.0787391,55.0719416 C43.5012167,55.0719416 43.0330423,55.540116 43.0330423,56.1176385 C43.0330423,56.6951609 43.5012167,57.1633353 44.0787391,57.1633353 Z M66.9795002,60.7500755 L44.0787391,60.7500755 C43.5012167,60.7500755 43.0330423,61.2182499 43.0330423,61.7957724 C43.0330423,62.3732948 43.5012167,62.8414692 44.0787391,62.8414692 L66.9795002,62.8414692 C67.5570227,62.8414692 68.0251971,62.3732948 68.0251971,61.7957724 C68.0251971,61.2182499 67.5570227,60.7500755 66.9795002,60.7500755 Z M68.0251971,44.7561421 L68.0251971,56.1071815 C68.0251971,56.6847039 67.5570227,57.1528783 66.9795002,57.1528783 L56.7996414,57.1528783 C56.2221189,57.1528783 55.7539445,56.6847039 55.7539445,56.1071815 L55.7539445,44.7613706 C55.7539445,44.1838482 56.2221189,43.7156738 56.7996414,43.7156738 L66.9795002,43.7156738 C67.5570227,43.7156738 68.0251971,44.1838482 68.0251971,44.7613706 L68.0251971,44.7561421 Z M65.9338034,45.801839 L57.8453382,45.801839 L57.8453382,55.0614846 L65.9338034,55.0614846 L65.9338034,45.801839 Z M25,63.4532019 L25,43.0621132 C25,42.4845908 25.4681744,42.0164164 26.0456969,42.0164164 C26.6232193,42.0164164 27.0913937,42.4845908 27.0913937,43.0621132 L27.0913937,63.4532019 C27.1738805,65.8669085 29.1544748,67.7809736 31.5695905,67.7809736 C33.9847062,67.7809736 35.9653005,65.8669085 36.0477873,63.4532019 L36.0477873,32.0456969 C36.0477873,31.4681744 36.5159617,31 37.0934841,31 L73.9542983,31 C74.5318207,31 75,31.4681744 75,32.0456969 L75,64.3838721 C75.001391,65.8823409 74.4060283,67.3196848 73.3454698,68.3782812 C72.2849113,69.4368775 70.8464672,70.0295774 69.3480036,70.0254285 L31.5722047,70.0254285 C27.9436712,70.0225234 25.0028832,67.0817354 25,63.4532019 Z M36.3719533,67.9340129 L69.3480036,67.9340129 C70.2881728,67.9340129 71.1898351,67.5605321 71.8546352,66.8957321 C72.5194352,66.2309321 72.8929159,65.3292698 72.8929159,64.3891006 L72.8929159,33.0913937 L38.1444095,33.0913937 L38.1444095,63.4532019 C38.146225,65.1171257 37.5143307,66.7192956 36.3771818,67.9340129 L36.3719533,67.9340129 Z M30.5265079,43.2817096 L30.5265079,63.4375164 C30.5265079,64.0150389 30.9946823,64.4832133 31.5722047,64.4832133 C32.1497272,64.4832133 32.6179016,64.0150389 32.6179016,63.4375164 L32.6179016,43.2817096 C32.6179016,42.7041871 32.1497272,42.2360127 31.5722047,42.2360127 C30.9946823,42.2360127 30.5265079,42.7041871 30.5265079,43.2817096 Z" id="Shape-Copy-2" stroke="#AFAFAF" stroke-width="0.7"></path>
        </g>
    </g>
</svg>